<svg viewBox="0 0 216 61" xmlns="http://www.w3.org/2000/svg" xmlns:xlink="http://www.w3.org/1999/xlink" width="216.000000" height="61.000000" fill="none" customFrame="#000000">
	<g id="Logo">
		<g id="Logo">
			<path id="VeloSport" d="M82.4775 41.5L76.7207 16.3018L79.9639 16.3018L84.7451 38.0811L84.8945 38.0811L89.6758 16.3018L92.9189 16.3018L87.1621 41.5L82.4775 41.5ZM101.736 41.8604C99.937 41.8604 98.4838 41.5791 97.3764 41.0166C96.2748 40.4482 95.4662 39.4873 94.9506 38.1338C94.435 36.7803 94.1772 34.9023 94.1772 32.5C94.1772 30.0977 94.4174 28.2197 94.8979 26.8662C95.3784 25.5127 96.0873 24.5547 97.0248 23.9922C97.9623 23.4238 99.1137 23.1396 100.479 23.1396C101.873 23.1396 103.031 23.4238 103.951 23.9922C104.876 24.5547 105.58 25.5127 106.06 26.8662C106.54 28.2197 106.781 30.0977 106.781 32.5L106.781 33.5811L97.4203 33.5811C97.4203 35.9072 97.81 37.5098 98.5893 38.3887C99.3686 39.2617 100.658 39.6982 102.456 39.6982L106.06 39.6982L106.06 41.1396C105.533 41.3096 104.859 41.4707 104.039 41.623C103.224 41.7812 102.456 41.8604 101.736 41.8604ZM97.4203 31.4189L103.538 31.4189C103.538 29.79 103.394 28.5186 103.107 27.6045C102.82 26.6904 102.448 26.0488 101.991 25.6797C101.534 25.3047 101.03 25.1172 100.479 25.1172C99.9516 25.1172 99.4536 25.3047 98.9848 25.6797C98.5161 26.0488 98.1381 26.6904 97.851 27.6045C97.5639 28.5186 97.4203 29.79 97.4203 31.4189ZM110.922 41.5L110.922 16.3018L114.157 16.3018L114.157 41.5L110.922 41.5ZM124.959 41.8604C123.518 41.8604 122.305 41.5674 121.321 40.9814C120.336 40.3896 119.586 39.4111 119.071 38.0459C118.555 36.6748 118.297 34.8262 118.297 32.5C118.297 30.1504 118.555 28.2988 119.071 26.9453C119.586 25.5859 120.336 24.6133 121.321 24.0273C122.305 23.4355 123.518 23.1396 124.959 23.1396C126.401 23.1396 127.619 23.4355 128.616 24.0273C129.612 24.6133 130.362 25.5859 130.866 26.9453C131.369 28.2988 131.621 30.1504 131.621 32.5C131.621 34.8262 131.369 36.6748 130.866 38.0459C130.362 39.4111 129.612 40.3896 128.616 40.9814C127.619 41.5674 126.401 41.8604 124.959 41.8604ZM124.959 39.8828C125.557 39.8828 126.114 39.666 126.629 39.2324C127.151 38.7988 127.573 38.0488 127.895 36.9824C128.217 35.916 128.378 34.4219 128.378 32.5C128.378 30.5781 128.217 29.084 127.895 28.0176C127.573 26.9512 127.151 26.2012 126.629 25.7676C126.114 25.334 125.557 25.1172 124.959 25.1172C124.362 25.1172 123.805 25.334 123.289 25.7676C122.774 26.2012 122.352 26.9512 122.024 28.0176C121.701 29.084 121.54 30.5781 121.54 32.5C121.54 34.4219 121.701 35.916 122.024 36.9824C122.352 38.0488 122.774 38.7988 123.289 39.2324C123.805 39.666 124.362 39.8828 124.959 39.8828ZM139.902 41.8604C138.818 41.8604 137.784 41.7812 136.8 41.623C135.821 41.4707 135.053 41.3096 134.497 41.1396L134.497 39.5225L139.181 39.5225C141.244 39.5225 142.688 39.1562 143.514 38.4238C144.346 37.6914 144.762 36.5576 144.762 35.0225C144.762 33.9619 144.516 33.127 144.024 32.5176C143.532 31.9082 142.896 31.3984 142.117 30.9883C141.338 30.5781 140.509 30.1826 139.63 29.8018C138.757 29.415 137.927 28.9404 137.142 28.3779C136.363 27.8154 135.727 27.0654 135.235 26.1279C134.743 25.1904 134.497 23.9541 134.497 22.4189C134.497 20.2568 135.053 18.6367 136.167 17.5586C137.286 16.4805 139.011 15.9414 141.344 15.9414C142.422 15.9414 143.459 16.0146 144.455 16.1611C145.451 16.3018 146.213 16.4688 146.74 16.6621L146.74 18.2793L142.064 18.2793C140.623 18.2793 139.542 18.6338 138.821 19.3428C138.1 20.0518 137.74 21.0771 137.74 22.4189C137.74 23.5264 137.986 24.4111 138.478 25.0732C138.97 25.7295 139.606 26.2686 140.385 26.6904C141.165 27.1064 141.991 27.5137 142.864 27.9121C143.743 28.3047 144.572 28.7734 145.351 29.3184C146.131 29.8574 146.766 30.5781 147.259 31.4805C147.751 32.377 147.997 33.5576 147.997 35.0225C147.997 37.3486 147.39 39.0713 146.177 40.1904C144.97 41.3037 142.879 41.8604 139.902 41.8604ZM151.598 48.6982L151.598 23.5L154.296 23.5L154.481 24.5811L154.656 24.5811C155.114 24.124 155.679 23.7695 156.353 23.5176C157.027 23.2656 157.721 23.1396 158.436 23.1396C159.713 23.1396 160.788 23.4238 161.661 23.9922C162.54 24.5547 163.211 25.5127 163.674 26.8662C164.143 28.2197 164.377 30.0977 164.377 32.5C164.377 34.9023 164.143 36.7803 163.674 38.1338C163.211 39.4873 162.54 40.4482 161.661 41.0166C160.788 41.5791 159.713 41.8604 158.436 41.8604C157.721 41.8604 157.079 41.7754 156.511 41.6055C155.948 41.4414 155.392 41.2275 154.841 40.9639L154.841 48.6982L151.598 48.6982ZM157.364 39.6982C158.155 39.6982 158.831 39.502 159.394 39.1094C159.956 38.7109 160.387 37.9902 160.686 36.9473C160.99 35.9043 161.143 34.4219 161.143 32.5C161.143 30.5781 160.99 29.0957 160.686 28.0527C160.387 27.0098 159.956 26.292 159.394 25.8994C158.831 25.501 158.155 25.3018 157.364 25.3018C156.906 25.3018 156.438 25.375 155.957 25.5215C155.477 25.6621 155.105 25.8291 154.841 26.0225L154.841 38.9775C155.105 39.1475 155.477 39.3115 155.957 39.4697C156.438 39.6221 156.906 39.6982 157.364 39.6982ZM174.279 41.8604C172.838 41.8604 171.625 41.5674 170.641 40.9814C169.656 40.3896 168.906 39.4111 168.391 38.0459C167.875 36.6748 167.617 34.8262 167.617 32.5C167.617 30.1504 167.875 28.2988 168.391 26.9453C168.906 25.5859 169.656 24.6133 170.641 24.0273C171.625 23.4355 172.838 23.1396 174.279 23.1396C175.721 23.1396 176.939 23.4355 177.936 24.0273C178.932 24.6133 179.682 25.5859 180.186 26.9453C180.689 28.2988 180.941 30.1504 180.941 32.5C180.941 34.8262 180.689 36.6748 180.186 38.0459C179.682 39.4111 178.932 40.3896 177.936 40.9814C176.939 41.5674 175.721 41.8604 174.279 41.8604ZM174.279 39.8828C174.877 39.8828 175.434 39.666 175.949 39.2324C176.471 38.7988 176.893 38.0488 177.215 36.9824C177.537 35.916 177.698 34.4219 177.698 32.5C177.698 30.5781 177.537 29.084 177.215 28.0176C176.893 26.9512 176.471 26.2012 175.949 25.7676C175.434 25.334 174.877 25.1172 174.279 25.1172C173.682 25.1172 173.125 25.334 172.609 25.7676C172.094 26.2012 171.672 26.9512 171.344 28.0176C171.021 29.084 170.86 30.5781 170.86 32.5C170.86 34.4219 171.021 35.916 171.344 36.9824C171.672 38.0488 172.094 38.7988 172.609 39.2324C173.125 39.666 173.682 39.8828 174.279 39.8828ZM184.898 41.5L184.898 23.5L187.64 23.5L187.816 24.9414L188 24.9414C188.428 24.5781 189.008 24.2471 189.741 23.9482C190.473 23.6494 191.378 23.5 192.456 23.5L194.258 23.5L194.258 26.1982L190.664 26.1982C190.206 26.1982 189.761 26.2539 189.328 26.3652C188.894 26.4707 188.498 26.6553 188.141 26.9189L188.141 41.5L184.898 41.5ZM202.539 41.8604C201.578 41.8604 200.72 41.6992 199.964 41.377C199.208 41.0488 198.607 40.4482 198.162 39.5752C197.723 38.6963 197.503 37.4189 197.503 35.7432L197.503 26.1982L195.341 26.1982L195.341 23.8604L197.503 23.8604L197.503 19.5361L200.737 19.5361L200.737 23.8604L205.782 23.8604L205.782 25.4775C205.255 25.6475 204.581 25.8115 203.761 25.9697C202.946 26.1221 202.179 26.1982 201.458 26.1982L200.737 26.1982L200.737 35.7432C200.737 36.8213 200.869 37.6416 201.133 38.2041C201.396 38.7666 201.727 39.1562 202.126 39.373C202.524 39.5898 202.902 39.6982 203.26 39.6982L206.503 39.6982L206.503 41.1396C206.216 41.2627 205.826 41.377 205.334 41.4824C204.842 41.5879 204.344 41.6758 203.84 41.7461C203.336 41.8223 202.902 41.8604 202.539 41.8604Z" fill="rgb(2.72305,40.4567,7.12531)" fill-rule="nonzero" />
			<path id="VeloSport" d="M81.5027 41.7227L75.4665 15.3018L80.7682 15.3018L85.7219 37.8666L84.7451 38.0811L84.7451 37.0811L84.8945 37.0811L84.8945 38.0811L83.9178 37.8666L88.8715 15.3018L94.1732 15.3018L87.9594 42.5L81.6802 42.5L81.5027 41.7227ZM83.4524 41.2773L82.4775 41.5L82.4775 40.5L87.1621 40.5L87.1621 41.5L86.1872 41.2773L91.9441 16.079L92.9189 16.3018L92.9189 17.3018L89.6758 17.3018L89.6758 16.3018L90.6525 16.5162L85.6988 39.0811L83.9408 39.0811L78.9871 16.5162L79.9639 16.3018L79.9639 17.3018L76.7207 17.3018L76.7207 16.3018L77.6956 16.079L83.4524 41.2773ZM101.736 42.8604Q98.7981 42.8604 96.9235 41.9082Q94.9257 40.8774 94.0161 38.4898Q93.1772 36.2875 93.1772 32.5Q93.1772 28.7243 93.9555 26.5317Q94.7963 24.1631 96.5103 23.1347Q98.1516 22.1397 100.479 22.1396Q102.855 22.1396 104.476 23.1415Q106.163 24.1661 107.002 26.5317Q107.781 28.7243 107.781 32.5L107.781 34.5811L97.4203 34.5811L97.4203 33.5811L98.4203 33.5811Q98.4203 36.6908 99.3375 37.7252Q100.206 38.6982 102.456 38.6982L107.06 38.6982L107.06 41.8681L106.367 42.0915Q105.515 42.366 104.221 42.6062Q102.913 42.8604 101.736 42.8604ZM101.736 40.8604Q102.721 40.8604 103.856 40.6399Q105.023 40.4231 105.753 40.1878L106.06 41.1396L105.06 41.1396L105.06 39.6982L106.06 39.6982L106.06 40.6982L102.456 40.6982Q99.3104 40.6982 97.8411 39.0521Q96.4203 37.4498 96.4203 33.5811L96.4203 32.5811L106.781 32.5811L106.781 33.5811L105.781 33.5811L105.781 32.5Q105.781 29.0687 105.118 27.2007Q104.516 25.5058 103.425 24.8429Q102.287 24.1396 100.479 24.1396Q98.7105 24.1396 97.5393 24.8497Q96.4409 25.5087 95.8403 27.2007Q95.1772 29.0687 95.1772 32.5Q95.1772 35.9195 95.8851 37.7778Q96.5224 39.4507 97.8293 40.125Q99.2769 40.8604 101.736 40.8604ZM97.4203 30.4189L103.538 30.4189L103.538 31.4189L102.538 31.4189Q102.538 29.1289 102.153 27.9042Q101.813 26.8214 101.362 26.4576Q100.947 26.1172 100.479 26.1172Q100.039 26.1172 99.6095 26.4606Q99.1431 26.8279 98.8051 27.9042Q98.4203 29.1289 98.4203 31.4189L97.4203 31.4189L97.4203 30.4189ZM97.4203 32.4189L96.4203 32.4189L96.4203 31.4189Q96.4203 28.8222 96.897 27.3048Q97.4202 25.6389 98.3601 24.8988Q99.3372 24.1172 100.479 24.1172Q101.663 24.1172 102.619 24.9017Q103.54 25.6454 104.061 27.3048Q104.538 28.8222 104.538 31.4189L104.538 32.4189L97.4203 32.4189ZM109.922 41.5L109.922 15.3018L115.157 15.3018L115.157 42.5L109.922 42.5L109.922 41.5ZM111.922 41.5L110.922 41.5L110.922 40.5L114.157 40.5L114.157 41.5L113.157 41.5L113.157 16.3018L114.157 16.3018L114.157 17.3018L110.922 17.3018L110.922 16.3018L111.922 16.3018L111.922 41.5ZM124.959 42.8604Q122.522 42.8604 120.809 41.8407Q119.031 40.7719 118.135 38.3992Q117.297 36.1711 117.297 32.5Q117.297 28.7916 118.136 26.5893Q119.033 24.2254 120.809 23.1681Q122.52 22.1397 124.959 22.1396Q127.396 22.1396 129.126 23.1676Q130.924 24.2248 131.803 26.5977Q132.621 28.7955 132.621 32.5Q132.621 36.1672 131.804 38.3909Q130.925 40.7725 129.126 41.8412Q127.394 42.8604 124.959 42.8604ZM124.959 40.8604Q126.849 40.8604 128.105 40.1217Q129.294 39.415 129.927 37.7009Q130.621 35.8113 130.621 32.5Q130.621 29.1557 129.928 27.2929Q129.296 25.5877 128.105 24.8871Q126.847 24.1396 124.959 24.1396Q123.075 24.1396 121.832 24.8866Q120.655 25.5871 120.005 27.3013Q119.297 29.1596 119.297 32.5Q119.297 35.8074 120.006 37.6926Q120.657 39.4156 121.832 40.1222Q123.072 40.8604 124.959 40.8604ZM124.959 38.8828Q125.491 38.8828 125.986 38.4671Q126.541 38.0052 126.938 36.6931Q127.378 35.235 127.378 32.5Q127.378 29.765 126.938 28.3069Q126.541 26.9948 125.99 26.5365Q125.491 26.1172 124.959 26.1172Q124.427 26.1172 123.933 26.5329Q123.385 26.9937 122.98 28.3117Q122.54 29.765 122.54 32.5Q122.54 35.235 122.981 36.6931Q123.385 38.0063 123.933 38.4671Q124.427 38.8828 124.959 38.8828ZM124.959 40.8828Q123.698 40.8828 122.646 39.9978Q121.647 39.1577 121.066 37.2717Q120.54 35.5306 120.54 32.5Q120.54 29.4694 121.068 27.7235Q121.647 25.8423 122.646 25.0022Q123.698 24.1172 124.959 24.1172Q126.22 24.1172 127.269 24.9986Q128.282 25.8411 128.852 27.7283Q129.378 29.4694 129.378 32.5Q129.378 35.5306 128.852 37.2717Q128.282 39.1589 127.273 39.9978Q126.22 40.8828 124.959 40.8828ZM139.902 42.8604Q138.196 42.8604 136.641 42.6104Q135.108 42.3717 134.205 42.0961L133.497 41.8799L133.497 38.5225L139.181 38.5225Q141.896 38.5225 142.851 37.6755Q143.762 36.8732 143.762 35.0225Q143.762 33.785 143.246 33.1459Q142.638 32.3923 141.651 31.8732Q140.516 31.2756 139.232 30.7193Q137.821 30.0944 136.56 29.1908Q135.197 28.2073 134.35 26.5928Q133.497 24.9682 133.497 22.4189Q133.497 18.7521 135.471 16.8402Q137.442 14.9414 141.344 14.9414Q143.034 14.9414 144.6 15.1718Q146.194 15.3967 147.084 15.7232L147.74 15.9637L147.74 19.2793L142.064 19.2793Q140.312 19.2793 139.522 20.0557Q138.74 20.8253 138.74 22.4189Q138.74 23.7491 139.281 24.4767Q139.885 25.2825 140.862 25.811Q141.998 26.4176 143.279 27.0024Q144.677 27.6268 145.924 28.4988Q147.284 29.4396 148.136 31.0016Q148.997 32.5687 148.997 35.0225Q148.997 38.9497 146.856 40.9254Q144.758 42.8604 139.902 42.8604ZM139.902 40.8604Q143.976 40.8604 145.499 39.4555Q146.997 38.0738 146.997 35.0225Q146.997 33.0816 146.381 31.9593Q145.756 30.8143 144.778 30.1379Q143.687 29.3751 142.449 28.8218Q141.111 28.2113 139.909 27.5698Q138.548 26.8328 137.676 25.6698Q136.74 24.411 136.74 22.4189Q136.74 19.9872 138.12 18.6299Q139.493 17.2793 142.064 17.2793L146.74 17.2793L146.74 18.2793L145.74 18.2793L145.74 16.6621L146.74 16.6621L146.396 17.601Q145.704 17.3474 144.309 17.1505Q142.888 16.9414 141.344 16.9414Q138.249 16.9414 136.862 18.277Q135.497 19.5994 135.497 22.4189Q135.497 24.4751 136.121 25.6631Q136.749 26.861 137.725 27.565Q138.819 28.349 140.027 28.8842Q141.38 29.4705 142.583 30.1034Q143.934 30.8147 144.802 31.8892Q145.762 33.0782 145.762 35.0225Q145.762 37.7772 144.178 39.1721Q142.655 40.5225 139.181 40.5225L134.497 40.5225L134.497 39.5225L135.497 39.5225L135.497 41.1396L134.497 41.1396L134.789 40.1832Q135.556 40.4174 136.958 40.6357Q138.356 40.8604 139.902 40.8604ZM150.598 48.6982L150.598 22.5L155.14 22.5L155.466 24.4128L154.481 24.5811L154.481 23.5811L154.656 23.5811L154.656 24.5811L153.949 23.8739Q154.788 23.0349 156.003 22.5809Q157.183 22.1396 158.436 22.1396Q160.649 22.1396 162.207 23.1541Q163.813 24.1819 164.62 26.5426Q165.377 28.7282 165.377 32.5Q165.377 36.2718 164.619 38.461Q163.814 40.8156 162.204 41.8563Q160.646 42.8604 158.436 42.8604Q157.217 42.8604 156.225 42.5636Q155.309 42.2966 154.409 41.8658L154.841 40.9639L155.841 40.9639L155.841 49.6982L150.598 49.6982L150.598 48.6982ZM152.598 48.6982L151.598 48.6982L151.598 47.6982L154.841 47.6982L154.841 48.6982L153.841 48.6982L153.841 39.3765L155.273 40.0619Q156.025 40.4222 156.797 40.6474Q157.51 40.8604 158.436 40.8604Q160.058 40.8604 161.118 40.1769Q162.146 39.5125 162.729 37.8065Q163.377 35.9352 163.377 32.5Q163.377 29.0648 162.728 27.1898Q162.147 25.49 161.116 24.8302Q160.055 24.1396 158.436 24.1396Q157.544 24.1396 156.703 24.4542Q155.896 24.7561 155.364 25.2882L155.071 25.5811L153.637 25.5811L153.31 23.6683L154.296 23.5L154.296 24.5L151.598 24.5L151.598 23.5L152.598 23.5L152.598 48.6982ZM157.364 38.6982Q158.236 38.6982 158.821 38.2893Q159.373 37.8987 159.724 36.6718Q160.143 35.2397 160.143 32.5Q160.143 29.7603 159.726 28.3331Q159.374 27.1051 158.821 26.7194Q158.232 26.3018 157.364 26.3018Q156.827 26.3018 156.249 26.478Q155.686 26.6428 155.432 26.8289L154.841 26.0225L155.841 26.0225L155.841 38.9775L154.841 38.9775L155.383 38.137Q155.671 38.3226 156.27 38.5199Q156.833 38.6982 157.364 38.6982ZM157.364 40.6982Q156.523 40.6982 155.645 40.4196Q154.802 40.1423 154.299 39.8181L153.841 39.5228L153.841 25.5157L154.25 25.2161Q154.787 24.8221 155.666 24.565Q156.529 24.3018 157.364 24.3018Q158.868 24.3018 159.966 25.0794Q161.101 25.8715 161.646 27.7723Q162.143 29.4741 162.143 32.5Q162.143 35.5259 161.647 37.2227Q161.102 39.1248 159.966 39.9294Q158.864 40.6982 157.364 40.6982ZM174.279 42.8604Q171.842 42.8604 170.129 41.8407Q168.351 40.7719 167.455 38.3992Q166.617 36.1711 166.617 32.5Q166.617 28.7916 167.456 26.5893Q168.353 24.2254 170.129 23.1681Q171.84 22.1397 174.279 22.1396Q176.716 22.1396 178.446 23.1676Q180.244 24.2248 181.123 26.5977Q181.941 28.7955 181.941 32.5Q181.941 36.1672 181.124 38.3909Q180.245 40.7725 178.446 41.8412Q176.714 42.8604 174.279 42.8604ZM174.279 40.8604Q176.169 40.8604 177.425 40.1217Q178.614 39.415 179.247 37.7009Q179.941 35.8113 179.941 32.5Q179.941 29.1557 179.248 27.2929Q178.616 25.5877 177.425 24.8871Q176.167 24.1396 174.279 24.1396Q172.395 24.1396 171.152 24.8866Q169.975 25.5871 169.325 27.3013Q168.617 29.1596 168.617 32.5Q168.617 35.8074 169.326 37.6926Q169.977 39.4156 171.152 40.1222Q172.392 40.8604 174.279 40.8604ZM174.279 38.8828Q174.811 38.8828 175.306 38.4671Q175.861 38.0052 176.258 36.6931Q176.698 35.235 176.698 32.5Q176.698 29.765 176.258 28.3069Q175.861 26.9948 175.31 26.5365Q174.811 26.1172 174.279 26.1172Q173.747 26.1172 173.253 26.5329Q172.705 26.9937 172.3 28.3117Q171.86 29.765 171.86 32.5Q171.86 35.235 172.301 36.6931Q172.705 38.0063 173.253 38.4671Q173.747 38.8828 174.279 38.8828ZM174.279 40.8828Q173.018 40.8828 171.966 39.9978Q170.967 39.1577 170.387 37.2717Q169.86 35.5306 169.86 32.5Q169.86 29.4694 170.388 27.7235Q170.967 25.8423 171.966 25.0022Q173.018 24.1172 174.279 24.1172Q175.54 24.1172 176.589 24.9986Q177.602 25.8411 178.172 27.7283Q178.698 29.4694 178.698 32.5Q178.698 35.5306 178.172 37.2717Q177.602 39.1589 176.593 39.9978Q175.54 40.8828 174.279 40.8828ZM183.898 41.5L183.898 22.5L188.526 22.5L188.809 24.8204L187.816 24.9414L187.816 23.9414L188 23.9414L188 24.9414L187.353 24.1792Q188.116 23.5309 189.363 23.0223Q190.643 22.5 192.456 22.5L195.258 22.5L195.258 27.1982L190.664 27.1982Q190.104 27.1982 189.576 27.3338Q189.109 27.4476 188.735 27.7237L188.141 26.9189L189.141 26.9189L189.141 42.5L183.898 42.5L183.898 41.5ZM185.898 41.5L184.898 41.5L184.898 40.5L188.141 40.5L188.141 41.5L187.141 41.5L187.141 26.414L187.547 26.1142Q188.245 25.5993 189.079 25.3967Q189.852 25.1982 190.664 25.1982L194.258 25.1982L194.258 26.1982L193.258 26.1982L193.258 23.5L194.258 23.5L194.258 24.5L192.456 24.5Q191.035 24.5 190.118 24.8741Q189.168 25.2621 188.648 25.7036L188.368 25.9414L186.93 25.9414L186.647 23.6211L187.64 23.5L187.64 24.5L184.898 24.5L184.898 23.5L185.898 23.5L185.898 41.5ZM202.539 42.8604Q200.893 42.8604 199.572 42.2968Q198.102 41.6591 197.271 40.0296Q196.503 38.4929 196.503 35.7432L196.503 26.1982L197.503 26.1982L197.503 27.1982L194.341 27.1982L194.341 22.8604L197.503 22.8604L197.503 23.8604L196.503 23.8604L196.503 18.5361L201.737 18.5361L201.737 23.8604L200.737 23.8604L200.737 22.8604L206.782 22.8604L206.782 26.2059L206.089 26.4293Q205.24 26.7028 203.95 26.9516Q202.632 27.1982 201.458 27.1982L200.737 27.1982L200.737 26.1982L201.737 26.1982L201.737 35.7432Q201.737 37.1376 202.038 37.7797Q202.294 38.3263 202.604 38.4947Q202.978 38.6982 203.26 38.6982L207.503 38.6982L207.503 41.799L206.897 42.0588Q206.377 42.2817 205.543 42.4602Q204.77 42.626 203.978 42.7365Q203.159 42.8604 202.539 42.8604ZM202.539 40.8604Q203.009 40.8604 203.702 40.7557Q204.422 40.6552 205.124 40.5046Q205.768 40.3668 206.109 40.2205L206.503 41.1396L205.503 41.1396L205.503 39.6982L206.503 39.6982L206.503 40.6982L203.26 40.6982Q202.469 40.6982 201.648 40.2514Q200.762 39.7694 200.227 38.6285Q199.737 37.5831 199.737 35.7432L199.737 25.1982L201.458 25.1982Q202.446 25.1982 203.571 24.9878Q204.742 24.762 205.475 24.5257L205.782 25.4775L204.782 25.4775L204.782 23.8604L205.782 23.8604L205.782 24.8604L199.737 24.8604L199.737 19.5361L200.737 19.5361L200.737 20.5361L197.503 20.5361L197.503 19.5361L198.503 19.5361L198.503 24.8604L195.341 24.8604L195.341 23.8604L196.341 23.8604L196.341 26.1982L195.341 26.1982L195.341 25.1982L198.503 25.1982L198.503 35.7432Q198.503 38.0208 199.053 39.1208Q199.558 40.1105 200.356 40.4571Q201.302 40.8604 202.539 40.8604Z" fill="rgb(2.72305,40.4567,7.12531)" fill-rule="nonzero" />
		</g>
		<g id="koleso">
			<ellipse id="Ellipse 1" rx="27.500000" ry="27.500002" cx="30.5" cy="30.5000019" fill="rgb(255,255,255)" fill-opacity="0" />
			<ellipse id="Ellipse 1" rx="27.500000" ry="27.500002" cx="30.5" cy="30.5000019" stroke="rgb(2.72305,40.4567,7.12531)" stroke-width="6" />
			<ellipse id="Ellipse 2" rx="11.500000" ry="11.000000" cx="30.5" cy="30" fill="rgb(2.72305,40.4567,7.12531)" />
			<rect id="Rectangle 2" width="51.071426" height="3.985508" x="4.571289" y="28.507263" fill="rgb(2.72305,40.4567,7.12531)" />
			<rect id="Rectangle 3" width="51.811600" height="3.928572" x="0.000000" y="0.000000" fill="rgb(2.72305,40.4567,7.12531)" transform="matrix(1.23116e-16,1,-1,1.2671e-16,32.0713,4.59418)" />
			<rect id="Rectangle 4" width="51.442844" height="3.957142" x="0.000000" y="0.000000" fill="rgb(2.72305,40.4567,7.12531)" transform="matrix(0.702001,-0.712176,0.702001,0.712176,10.6616,47.4091)" />
			<rect id="Rectangle 5" width="51.442844" height="3.957142" x="0.000000" y="0.000000" fill="rgb(2.72305,40.4567,7.12531)" transform="matrix(0.702001,0.712176,-0.702001,0.712176,13.4397,10.7728)" />
			<ellipse id="Ellipse 3" rx="9.500000" ry="9.000000" cx="30.5" cy="30" fill="rgb(255,255,255)" />
			<path id="Ellipse 4" d="M22 30C22 25.3056 25.8056 21.5 30.5 21.5C35.1944 21.5 39 25.3056 39 30C39 34.6944 35.1944 38.5 30.5 38.5C28.1414 38.5 26.0075 37.5397 24.4676 35.9884C22.9425 34.452 22 32.3358 22 30Z" fill="rgb(2.72305,40.4567,7.12531)" fill-rule="evenodd" />
			<circle id="Ellipse 5" cx="24.5" cy="28.5" r="1.5" fill="rgb(255,255,255)" />
			<circle id="Ellipse 6" cx="27.5" cy="24.5" r="1.5" fill="rgb(255,255,255)" />
			<circle id="Ellipse 7" cx="33.5" cy="24.5" r="1.5" fill="rgb(255,255,255)" />
			<circle id="Ellipse 8" cx="36.5" cy="28.5" r="1.5" fill="rgb(255,255,255)" />
			<circle id="Ellipse 10" cx="35.5" cy="33.5" r="1.5" fill="rgb(255,255,255)" />
			<circle id="Ellipse 12" cx="30.5" cy="36.5" r="1.5" fill="rgb(255,255,255)" />
			<circle id="Ellipse 13" cx="25.5" cy="33.5" r="1.5" fill="rgb(255,255,255)" />
		</g>
	</g>
</svg>
