<svg viewBox="0 0 61 61" xmlns="http://www.w3.org/2000/svg" xmlns:xlink="http://www.w3.org/1999/xlink" width="61.000000" height="61.000000" fill="none" customFrame="#000000">
	<g id="koleso">
		<ellipse id="Ellipse 1" rx="27.500000" ry="27.500002" cx="30.5" cy="30.5000019" fill="rgb(255,255,255)" fill-opacity="0" />
		<ellipse id="Ellipse 1" rx="27.500000" ry="27.500002" cx="30.5" cy="30.5000019" stroke="rgb(2.72305,40.4567,7.12531)" stroke-width="6" />
		<ellipse id="Ellipse 2" rx="11.500000" ry="11.000000" cx="30.5" cy="30" fill="rgb(2.72305,40.4567,7.12531)" />
		<rect id="Rectangle 2" width="51.071426" height="3.985508" x="4.571289" y="28.507263" fill="rgb(2.72305,40.4567,7.12531)" />
		<rect id="Rectangle 3" width="51.811600" height="3.928572" x="0.000000" y="0.000000" fill="rgb(2.72305,40.4567,7.12531)" transform="matrix(1.23116e-16,1,-1,1.2671e-16,32.0713,4.59418)" />
		<rect id="Rectangle 4" width="51.442844" height="3.957142" x="0.000000" y="0.000000" fill="rgb(2.72305,40.4567,7.12531)" transform="matrix(0.702001,-0.712176,0.702001,0.712176,10.6616,47.4091)" />
		<rect id="Rectangle 5" width="51.442844" height="3.957142" x="0.000000" y="0.000000" fill="rgb(2.72305,40.4567,7.12531)" transform="matrix(0.702001,0.712176,-0.702001,0.712176,13.4397,10.7728)" />
		<ellipse id="Ellipse 3" rx="9.500000" ry="9.000000" cx="30.5" cy="30" fill="rgb(255,255,255)" />
		<path id="Ellipse 4" d="M22 30C22 25.3056 25.8056 21.5 30.5 21.5C35.1944 21.5 39 25.3056 39 30C39 34.6944 35.1944 38.5 30.5 38.5C28.1414 38.5 26.0075 37.5397 24.4676 35.9884C22.9425 34.452 22 32.3358 22 30Z" fill="rgb(2.72305,40.4567,7.12531)" fill-rule="evenodd" />
		<circle id="Ellipse 5" cx="24.5" cy="28.5" r="1.5" fill="rgb(255,255,255)" />
		<circle id="Ellipse 6" cx="27.5" cy="24.5" r="1.5" fill="rgb(255,255,255)" />
		<circle id="Ellipse 7" cx="33.5" cy="24.5" r="1.5" fill="rgb(255,255,255)" />
		<circle id="Ellipse 8" cx="36.5" cy="28.5" r="1.5" fill="rgb(255,255,255)" />
		<circle id="Ellipse 10" cx="35.5" cy="33.5" r="1.5" fill="rgb(255,255,255)" />
		<circle id="Ellipse 12" cx="30.5" cy="36.5" r="1.5" fill="rgb(255,255,255)" />
		<circle id="Ellipse 13" cx="25.5" cy="33.5" r="1.5" fill="rgb(255,255,255)" />
	</g>
</svg>
