<svg viewBox="0 0 218 62" xmlns="http://www.w3.org/2000/svg" xmlns:xlink="http://www.w3.org/1999/xlink" width="218.000000" height="62.000000" fill="none" customFrame="#000000">
	<g id="Logo2">
		<g id="Logo">
			<path id="VeloSport" d="M84.4775 43.5L78.7207 18.3018L81.9639 18.3018L86.7451 40.0811L86.8945 40.0811L91.6758 18.3018L94.9189 18.3018L89.1621 43.5L84.4775 43.5ZM103.736 43.8604C101.937 43.8604 100.484 43.5791 99.3764 43.0166C98.2748 42.4482 97.4662 41.4873 96.9506 40.1338C96.435 38.7803 96.1772 36.9023 96.1772 34.5C96.1772 32.0977 96.4174 30.2197 96.8979 28.8662C97.3784 27.5127 98.0873 26.5547 99.0248 25.9922C99.9623 25.4238 101.114 25.1396 102.479 25.1396C103.873 25.1396 105.031 25.4238 105.951 25.9922C106.876 26.5547 107.58 27.5127 108.06 28.8662C108.54 30.2197 108.781 32.0977 108.781 34.5L108.781 35.5811L99.4203 35.5811C99.4203 37.9072 99.81 39.5098 100.589 40.3887C101.369 41.2617 102.658 41.6982 104.456 41.6982L108.06 41.6982L108.06 43.1396C107.533 43.3096 106.859 43.4707 106.039 43.623C105.224 43.7812 104.456 43.8604 103.736 43.8604ZM99.4203 33.4189L105.538 33.4189C105.538 31.79 105.394 30.5186 105.107 29.6045C104.82 28.6904 104.448 28.0488 103.991 27.6797C103.534 27.3047 103.03 27.1172 102.479 27.1172C101.952 27.1172 101.454 27.3047 100.985 27.6797C100.516 28.0488 100.138 28.6904 99.851 29.6045C99.5639 30.5186 99.4203 31.79 99.4203 33.4189ZM112.922 43.5L112.922 18.3018L116.157 18.3018L116.157 43.5L112.922 43.5ZM126.959 43.8604C125.518 43.8604 124.305 43.5674 123.321 42.9814C122.336 42.3896 121.586 41.4111 121.071 40.0459C120.555 38.6748 120.297 36.8262 120.297 34.5C120.297 32.1504 120.555 30.2988 121.071 28.9453C121.586 27.5859 122.336 26.6133 123.321 26.0273C124.305 25.4355 125.518 25.1396 126.959 25.1396C128.401 25.1396 129.619 25.4355 130.616 26.0273C131.612 26.6133 132.362 27.5859 132.866 28.9453C133.369 30.2988 133.621 32.1504 133.621 34.5C133.621 36.8262 133.369 38.6748 132.866 40.0459C132.362 41.4111 131.612 42.3896 130.616 42.9814C129.619 43.5674 128.401 43.8604 126.959 43.8604ZM126.959 41.8828C127.557 41.8828 128.114 41.666 128.629 41.2324C129.151 40.7988 129.573 40.0488 129.895 38.9824C130.217 37.916 130.378 36.4219 130.378 34.5C130.378 32.5781 130.217 31.084 129.895 30.0176C129.573 28.9512 129.151 28.2012 128.629 27.7676C128.114 27.334 127.557 27.1172 126.959 27.1172C126.362 27.1172 125.805 27.334 125.289 27.7676C124.774 28.2012 124.352 28.9512 124.024 30.0176C123.701 31.084 123.54 32.5781 123.54 34.5C123.54 36.4219 123.701 37.916 124.024 38.9824C124.352 40.0488 124.774 40.7988 125.289 41.2324C125.805 41.666 126.362 41.8828 126.959 41.8828ZM141.902 43.8604C140.818 43.8604 139.784 43.7812 138.8 43.623C137.821 43.4707 137.053 43.3096 136.497 43.1396L136.497 41.5225L141.181 41.5225C143.244 41.5225 144.688 41.1562 145.514 40.4238C146.346 39.6914 146.762 38.5576 146.762 37.0225C146.762 35.9619 146.516 35.127 146.024 34.5176C145.532 33.9082 144.896 33.3984 144.117 32.9883C143.338 32.5781 142.509 32.1826 141.63 31.8018C140.757 31.415 139.927 30.9404 139.142 30.3779C138.363 29.8154 137.727 29.0654 137.235 28.1279C136.743 27.1904 136.497 25.9541 136.497 24.4189C136.497 22.2568 137.053 20.6367 138.167 19.5586C139.286 18.4805 141.011 17.9414 143.344 17.9414C144.422 17.9414 145.459 18.0146 146.455 18.1611C147.451 18.3018 148.213 18.4688 148.74 18.6621L148.74 20.2793L144.064 20.2793C142.623 20.2793 141.542 20.6338 140.821 21.3428C140.1 22.0518 139.74 23.0771 139.74 24.4189C139.74 25.5264 139.986 26.4111 140.478 27.0732C140.97 27.7295 141.606 28.2686 142.385 28.6904C143.165 29.1064 143.991 29.5137 144.864 29.9121C145.743 30.3047 146.572 30.7734 147.351 31.3184C148.131 31.8574 148.766 32.5781 149.259 33.4805C149.751 34.377 149.997 35.5576 149.997 37.0225C149.997 39.3486 149.39 41.0713 148.177 42.1904C146.97 43.3037 144.879 43.8604 141.902 43.8604ZM153.598 50.6982L153.598 25.5L156.296 25.5L156.481 26.5811L156.656 26.5811C157.114 26.124 157.679 25.7695 158.353 25.5176C159.027 25.2656 159.721 25.1396 160.436 25.1396C161.713 25.1396 162.788 25.4238 163.661 25.9922C164.54 26.5547 165.211 27.5127 165.674 28.8662C166.143 30.2197 166.377 32.0977 166.377 34.5C166.377 36.9023 166.143 38.7803 165.674 40.1338C165.211 41.4873 164.54 42.4482 163.661 43.0166C162.788 43.5791 161.713 43.8604 160.436 43.8604C159.721 43.8604 159.079 43.7754 158.511 43.6055C157.948 43.4414 157.392 43.2275 156.841 42.9639L156.841 50.6982L153.598 50.6982ZM159.364 41.6982C160.155 41.6982 160.831 41.502 161.394 41.1094C161.956 40.7109 162.387 39.9902 162.686 38.9473C162.99 37.9043 163.143 36.4219 163.143 34.5C163.143 32.5781 162.99 31.0957 162.686 30.0527C162.387 29.0098 161.956 28.292 161.394 27.8994C160.831 27.501 160.155 27.3018 159.364 27.3018C158.906 27.3018 158.438 27.375 157.957 27.5215C157.477 27.6621 157.105 27.8291 156.841 28.0225L156.841 40.9775C157.105 41.1475 157.477 41.3115 157.957 41.4697C158.438 41.6221 158.906 41.6982 159.364 41.6982ZM176.279 43.8604C174.838 43.8604 173.625 43.5674 172.641 42.9814C171.656 42.3896 170.906 41.4111 170.391 40.0459C169.875 38.6748 169.617 36.8262 169.617 34.5C169.617 32.1504 169.875 30.2988 170.391 28.9453C170.906 27.5859 171.656 26.6133 172.641 26.0273C173.625 25.4355 174.838 25.1396 176.279 25.1396C177.721 25.1396 178.939 25.4355 179.936 26.0273C180.932 26.6133 181.682 27.5859 182.186 28.9453C182.689 30.2988 182.941 32.1504 182.941 34.5C182.941 36.8262 182.689 38.6748 182.186 40.0459C181.682 41.4111 180.932 42.3896 179.936 42.9814C178.939 43.5674 177.721 43.8604 176.279 43.8604ZM176.279 41.8828C176.877 41.8828 177.434 41.666 177.949 41.2324C178.471 40.7988 178.893 40.0488 179.215 38.9824C179.537 37.916 179.698 36.4219 179.698 34.5C179.698 32.5781 179.537 31.084 179.215 30.0176C178.893 28.9512 178.471 28.2012 177.949 27.7676C177.434 27.334 176.877 27.1172 176.279 27.1172C175.682 27.1172 175.125 27.334 174.609 27.7676C174.094 28.2012 173.672 28.9512 173.344 30.0176C173.021 31.084 172.86 32.5781 172.86 34.5C172.86 36.4219 173.021 37.916 173.344 38.9824C173.672 40.0488 174.094 40.7988 174.609 41.2324C175.125 41.666 175.682 41.8828 176.279 41.8828ZM186.898 43.5L186.898 25.5L189.64 25.5L189.816 26.9414L190 26.9414C190.428 26.5781 191.008 26.2471 191.741 25.9482C192.473 25.6494 193.378 25.5 194.456 25.5L196.258 25.5L196.258 28.1982L192.664 28.1982C192.206 28.1982 191.761 28.2539 191.328 28.3652C190.894 28.4707 190.498 28.6553 190.141 28.9189L190.141 43.5L186.898 43.5ZM204.539 43.8604C203.578 43.8604 202.72 43.6992 201.964 43.377C201.208 43.0488 200.607 42.4482 200.162 41.5752C199.723 40.6963 199.503 39.4189 199.503 37.7432L199.503 28.1982L197.341 28.1982L197.341 25.8604L199.503 25.8604L199.503 21.5361L202.737 21.5361L202.737 25.8604L207.782 25.8604L207.782 27.4775C207.255 27.6475 206.581 27.8115 205.761 27.9697C204.946 28.1221 204.179 28.1982 203.458 28.1982L202.737 28.1982L202.737 37.7432C202.737 38.8213 202.869 39.6416 203.133 40.2041C203.396 40.7666 203.727 41.1562 204.126 41.373C204.524 41.5898 204.902 41.6982 205.26 41.6982L208.503 41.6982L208.503 43.1396C208.216 43.2627 207.826 43.377 207.334 43.4824C206.842 43.5879 206.344 43.6758 205.84 43.7461C205.336 43.8223 204.902 43.8604 204.539 43.8604Z" fill="rgb(255,255,255)" fill-rule="nonzero" />
			<path id="VeloSport" d="M83.5027 43.7227L77.4665 17.3018L82.7682 17.3018L87.7219 39.8666L86.7451 40.0811L86.7451 39.0811L86.8945 39.0811L86.8945 40.0811L85.9178 39.8666L90.8715 17.3018L96.1732 17.3018L89.9594 44.5L83.6802 44.5L83.5027 43.7227ZM85.4524 43.2773L84.4775 43.5L84.4775 42.5L89.1621 42.5L89.1621 43.5L88.1872 43.2773L93.9441 18.079L94.9189 18.3018L94.9189 19.3018L91.6758 19.3018L91.6758 18.3018L92.6525 18.5162L87.6988 41.0811L85.9408 41.0811L80.9871 18.5162L81.9639 18.3018L81.9639 19.3018L78.7207 19.3018L78.7207 18.3018L79.6956 18.079L85.4524 43.2773ZM103.736 44.8604Q100.798 44.8604 98.9235 43.9082Q96.9257 42.8774 96.0161 40.4898Q95.1772 38.2875 95.1772 34.5Q95.1772 30.7243 95.9555 28.5317Q96.7963 26.1631 98.5103 25.1347Q100.152 24.1397 102.479 24.1396Q104.855 24.1396 106.476 25.1415Q108.163 26.1661 109.002 28.5317Q109.781 30.7243 109.781 34.5L109.781 36.5811L99.4203 36.5811L99.4203 35.5811L100.42 35.5811Q100.42 38.6908 101.338 39.7252Q102.206 40.6982 104.456 40.6982L109.06 40.6982L109.06 43.8681L108.367 44.0915Q107.515 44.366 106.221 44.6062Q104.913 44.8604 103.736 44.8604ZM103.736 42.8604Q104.721 42.8604 105.856 42.6399Q107.023 42.4231 107.753 42.1878L108.06 43.1396L107.06 43.1396L107.06 41.6982L108.06 41.6982L108.06 42.6982L104.456 42.6982Q101.31 42.6982 99.8411 41.0521Q98.4203 39.4498 98.4203 35.5811L98.4203 34.5811L108.781 34.5811L108.781 35.5811L107.781 35.5811L107.781 34.5Q107.781 31.0687 107.118 29.2007Q106.516 27.5058 105.425 26.8429Q104.287 26.1396 102.479 26.1396Q100.711 26.1396 99.5393 26.8497Q98.4409 27.5087 97.8403 29.2007Q97.1772 31.0687 97.1772 34.5Q97.1772 37.9195 97.8851 39.7778Q98.5224 41.4507 99.8293 42.125Q101.277 42.8604 103.736 42.8604ZM99.4203 32.4189L105.538 32.4189L105.538 33.4189L104.538 33.4189Q104.538 31.1289 104.153 29.9042Q103.813 28.8214 103.362 28.4576Q102.947 28.1172 102.479 28.1172Q102.039 28.1172 101.609 28.4606Q101.143 28.8279 100.805 29.9042Q100.42 31.1289 100.42 33.4189L99.4203 33.4189L99.4203 32.4189ZM99.4203 34.4189L98.4203 34.4189L98.4203 33.4189Q98.4203 30.8222 98.897 29.3048Q99.4202 27.6389 100.36 26.8988Q101.337 26.1172 102.479 26.1172Q103.663 26.1172 104.619 26.9017Q105.54 27.6454 106.061 29.3048Q106.538 30.8222 106.538 33.4189L106.538 34.4189L99.4203 34.4189ZM111.922 43.5L111.922 17.3018L117.157 17.3018L117.157 44.5L111.922 44.5L111.922 43.5ZM113.922 43.5L112.922 43.5L112.922 42.5L116.157 42.5L116.157 43.5L115.157 43.5L115.157 18.3018L116.157 18.3018L116.157 19.3018L112.922 19.3018L112.922 18.3018L113.922 18.3018L113.922 43.5ZM126.959 44.8604Q124.522 44.8604 122.809 43.8407Q121.031 42.7719 120.135 40.3992Q119.297 38.1711 119.297 34.5Q119.297 30.7916 120.136 28.5893Q121.033 26.2254 122.809 25.1681Q124.52 24.1397 126.959 24.1396Q129.396 24.1396 131.126 25.1676Q132.924 26.2248 133.803 28.5977Q134.621 30.7955 134.621 34.5Q134.621 38.1672 133.804 40.3909Q132.925 42.7725 131.126 43.8412Q129.394 44.8604 126.959 44.8604ZM126.959 42.8604Q128.849 42.8604 130.105 42.1217Q131.294 41.415 131.927 39.7009Q132.621 37.8113 132.621 34.5Q132.621 31.1557 131.928 29.2929Q131.296 27.5877 130.105 26.8871Q128.847 26.1396 126.959 26.1396Q125.075 26.1396 123.832 26.8866Q122.655 27.5871 122.005 29.3013Q121.297 31.1596 121.297 34.5Q121.297 37.8074 122.006 39.6926Q122.657 41.4156 123.832 42.1222Q125.072 42.8604 126.959 42.8604ZM126.959 40.8828Q127.491 40.8828 127.986 40.4671Q128.541 40.0052 128.938 38.6931Q129.378 37.235 129.378 34.5Q129.378 31.765 128.938 30.3069Q128.541 28.9948 127.99 28.5365Q127.491 28.1172 126.959 28.1172Q126.427 28.1172 125.933 28.5329Q125.385 28.9937 124.98 30.3117Q124.54 31.765 124.54 34.5Q124.54 37.235 124.981 38.6931Q125.385 40.0063 125.933 40.4671Q126.427 40.8828 126.959 40.8828ZM126.959 42.8828Q125.698 42.8828 124.646 41.9978Q123.647 41.1577 123.066 39.2717Q122.54 37.5306 122.54 34.5Q122.54 31.4694 123.068 29.7235Q123.647 27.8423 124.646 27.0022Q125.698 26.1172 126.959 26.1172Q128.22 26.1172 129.269 26.9986Q130.282 27.8411 130.852 29.7283Q131.378 31.4694 131.378 34.5Q131.378 37.5306 130.852 39.2717Q130.282 41.1589 129.273 41.9978Q128.22 42.8828 126.959 42.8828ZM141.902 44.8604Q140.196 44.8604 138.641 44.6104Q137.108 44.3717 136.205 44.0961L135.497 43.8799L135.497 40.5225L141.181 40.5225Q143.896 40.5225 144.851 39.6755Q145.762 38.8732 145.762 37.0225Q145.762 35.785 145.246 35.1459Q144.638 34.3923 143.651 33.8732Q142.516 33.2756 141.232 32.7193Q139.821 32.0944 138.56 31.1908Q137.197 30.2073 136.35 28.5928Q135.497 26.9682 135.497 24.4189Q135.497 20.7521 137.471 18.8402Q139.442 16.9414 143.344 16.9414Q145.034 16.9414 146.6 17.1718Q148.194 17.3967 149.084 17.7232L149.74 17.9637L149.74 21.2793L144.064 21.2793Q142.312 21.2793 141.522 22.0557Q140.74 22.8253 140.74 24.4189Q140.74 25.7491 141.281 26.4767Q141.885 27.2825 142.862 27.811Q143.998 28.4176 145.279 29.0024Q146.677 29.6268 147.924 30.4988Q149.284 31.4396 150.136 33.0016Q150.997 34.5687 150.997 37.0225Q150.997 40.9497 148.856 42.9254Q146.758 44.8604 141.902 44.8604ZM141.902 42.8604Q145.976 42.8604 147.499 41.4555Q148.997 40.0738 148.997 37.0225Q148.997 35.0816 148.381 33.9593Q147.756 32.8143 146.778 32.1379Q145.687 31.3751 144.449 30.8218Q143.111 30.2113 141.909 29.5698Q140.548 28.8328 139.676 27.6698Q138.74 26.411 138.74 24.4189Q138.74 21.9872 140.12 20.6299Q141.493 19.2793 144.064 19.2793L148.74 19.2793L148.74 20.2793L147.74 20.2793L147.74 18.6621L148.74 18.6621L148.396 19.601Q147.704 19.3474 146.309 19.1505Q144.888 18.9414 143.344 18.9414Q140.249 18.9414 138.862 20.277Q137.497 21.5994 137.497 24.4189Q137.497 26.4751 138.121 27.6631Q138.749 28.861 139.725 29.565Q140.819 30.349 142.027 30.8842Q143.38 31.4705 144.583 32.1034Q145.934 32.8147 146.802 33.8892Q147.762 35.0782 147.762 37.0225Q147.762 39.7772 146.178 41.1721Q144.655 42.5225 141.181 42.5225L136.497 42.5225L136.497 41.5225L137.497 41.5225L137.497 43.1396L136.497 43.1396L136.789 42.1832Q137.556 42.4174 138.958 42.6357Q140.356 42.8604 141.902 42.8604ZM152.598 50.6982L152.598 24.5L157.14 24.5L157.466 26.4128L156.481 26.5811L156.481 25.5811L156.656 25.5811L156.656 26.5811L155.949 25.8739Q156.788 25.0349 158.003 24.5809Q159.183 24.1396 160.436 24.1396Q162.649 24.1396 164.207 25.1541Q165.813 26.1819 166.62 28.5426Q167.377 30.7282 167.377 34.5Q167.377 38.2718 166.619 40.461Q165.814 42.8156 164.204 43.8563Q162.646 44.8604 160.436 44.8604Q159.217 44.8604 158.225 44.5636Q157.309 44.2966 156.409 43.8658L156.841 42.9639L157.841 42.9639L157.841 51.6982L152.598 51.6982L152.598 50.6982ZM154.598 50.6982L153.598 50.6982L153.598 49.6982L156.841 49.6982L156.841 50.6982L155.841 50.6982L155.841 41.3765L157.273 42.0619Q158.025 42.4222 158.797 42.6474Q159.51 42.8604 160.436 42.8604Q162.058 42.8604 163.118 42.1769Q164.146 41.5125 164.729 39.8065Q165.377 37.9352 165.377 34.5Q165.377 31.0648 164.728 29.1898Q164.147 27.49 163.116 26.8302Q162.055 26.1396 160.436 26.1396Q159.544 26.1396 158.703 26.4542Q157.896 26.7561 157.364 27.2882L157.071 27.5811L155.637 27.5811L155.31 25.6683L156.296 25.5L156.296 26.5L153.598 26.5L153.598 25.5L154.598 25.5L154.598 50.6982ZM159.364 40.6982Q160.236 40.6982 160.821 40.2893Q161.373 39.8987 161.724 38.6718Q162.143 37.2397 162.143 34.5Q162.143 31.7603 161.726 30.3331Q161.374 29.1051 160.821 28.7194Q160.232 28.3018 159.364 28.3018Q158.827 28.3018 158.249 28.478Q157.686 28.6428 157.432 28.8289L156.841 28.0225L157.841 28.0225L157.841 40.9775L156.841 40.9775L157.383 40.137Q157.671 40.3226 158.27 40.5199Q158.833 40.6982 159.364 40.6982ZM159.364 42.6982Q158.523 42.6982 157.645 42.4196Q156.802 42.1423 156.299 41.8181L155.841 41.5228L155.841 27.5157L156.25 27.2161Q156.787 26.8221 157.666 26.565Q158.529 26.3018 159.364 26.3018Q160.868 26.3018 161.966 27.0794Q163.101 27.8715 163.646 29.7723Q164.143 31.4741 164.143 34.5Q164.143 37.5259 163.647 39.2227Q163.102 41.1248 161.966 41.9294Q160.864 42.6982 159.364 42.6982ZM176.279 44.8604Q173.842 44.8604 172.129 43.8407Q170.351 42.7719 169.455 40.3992Q168.617 38.1711 168.617 34.5Q168.617 30.7916 169.456 28.5893Q170.353 26.2254 172.129 25.1681Q173.84 24.1397 176.279 24.1396Q178.716 24.1396 180.446 25.1676Q182.244 26.2248 183.123 28.5977Q183.941 30.7955 183.941 34.5Q183.941 38.1672 183.124 40.3909Q182.245 42.7725 180.446 43.8412Q178.714 44.8604 176.279 44.8604ZM176.279 42.8604Q178.169 42.8604 179.425 42.1217Q180.614 41.415 181.247 39.7009Q181.941 37.8113 181.941 34.5Q181.941 31.1557 181.248 29.2929Q180.616 27.5877 179.425 26.8871Q178.167 26.1396 176.279 26.1396Q174.395 26.1396 173.152 26.8866Q171.975 27.5871 171.325 29.3013Q170.617 31.1596 170.617 34.5Q170.617 37.8074 171.326 39.6926Q171.977 41.4156 173.152 42.1222Q174.392 42.8604 176.279 42.8604ZM176.279 40.8828Q176.811 40.8828 177.306 40.4671Q177.861 40.0052 178.258 38.6931Q178.698 37.235 178.698 34.5Q178.698 31.765 178.258 30.3069Q177.861 28.9948 177.31 28.5365Q176.811 28.1172 176.279 28.1172Q175.747 28.1172 175.253 28.5329Q174.705 28.9937 174.3 30.3117Q173.86 31.765 173.86 34.5Q173.86 37.235 174.301 38.6931Q174.705 40.0063 175.253 40.4671Q175.747 40.8828 176.279 40.8828ZM176.279 42.8828Q175.018 42.8828 173.966 41.9978Q172.967 41.1577 172.387 39.2717Q171.86 37.5306 171.86 34.5Q171.86 31.4694 172.388 29.7235Q172.967 27.8423 173.966 27.0022Q175.018 26.1172 176.279 26.1172Q177.54 26.1172 178.589 26.9986Q179.602 27.8411 180.172 29.7283Q180.698 31.4694 180.698 34.5Q180.698 37.5306 180.172 39.2717Q179.602 41.1589 178.593 41.9978Q177.54 42.8828 176.279 42.8828ZM185.898 43.5L185.898 24.5L190.526 24.5L190.809 26.8204L189.816 26.9414L189.816 25.9414L190 25.9414L190 26.9414L189.353 26.1792Q190.116 25.5309 191.363 25.0223Q192.643 24.5 194.456 24.5L197.258 24.5L197.258 29.1982L192.664 29.1982Q192.104 29.1982 191.576 29.3338Q191.109 29.4476 190.735 29.7237L190.141 28.9189L191.141 28.9189L191.141 44.5L185.898 44.5L185.898 43.5ZM187.898 43.5L186.898 43.5L186.898 42.5L190.141 42.5L190.141 43.5L189.141 43.5L189.141 28.414L189.547 28.1142Q190.245 27.5993 191.079 27.3967Q191.852 27.1982 192.664 27.1982L196.258 27.1982L196.258 28.1982L195.258 28.1982L195.258 25.5L196.258 25.5L196.258 26.5L194.456 26.5Q193.035 26.5 192.118 26.8741Q191.168 27.2621 190.648 27.7036L190.368 27.9414L188.93 27.9414L188.647 25.6211L189.64 25.5L189.64 26.5L186.898 26.5L186.898 25.5L187.898 25.5L187.898 43.5ZM204.539 44.8604Q202.893 44.8604 201.572 44.2968Q200.102 43.6591 199.271 42.0296Q198.503 40.4929 198.503 37.7432L198.503 28.1982L199.503 28.1982L199.503 29.1982L196.341 29.1982L196.341 24.8604L199.503 24.8604L199.503 25.8604L198.503 25.8604L198.503 20.5361L203.737 20.5361L203.737 25.8604L202.737 25.8604L202.737 24.8604L208.782 24.8604L208.782 28.2059L208.089 28.4293Q207.24 28.7028 205.95 28.9516Q204.632 29.1982 203.458 29.1982L202.737 29.1982L202.737 28.1982L203.737 28.1982L203.737 37.7432Q203.737 39.1376 204.038 39.7797Q204.294 40.3263 204.604 40.4947Q204.978 40.6982 205.26 40.6982L209.503 40.6982L209.503 43.799L208.897 44.0588Q208.377 44.2817 207.543 44.4602Q206.77 44.626 205.978 44.7365Q205.159 44.8604 204.539 44.8604ZM204.539 42.8604Q205.009 42.8604 205.702 42.7557Q206.422 42.6552 207.124 42.5046Q207.768 42.3668 208.109 42.2205L208.503 43.1396L207.503 43.1396L207.503 41.6982L208.503 41.6982L208.503 42.6982L205.26 42.6982Q204.469 42.6982 203.648 42.2514Q202.762 41.7694 202.227 40.6285Q201.737 39.5831 201.737 37.7432L201.737 27.1982L203.458 27.1982Q204.446 27.1982 205.571 26.9878Q206.742 26.762 207.475 26.5257L207.782 27.4775L206.782 27.4775L206.782 25.8604L207.782 25.8604L207.782 26.8604L201.737 26.8604L201.737 21.5361L202.737 21.5361L202.737 22.5361L199.503 22.5361L199.503 21.5361L200.503 21.5361L200.503 26.8604L197.341 26.8604L197.341 25.8604L198.341 25.8604L198.341 28.1982L197.341 28.1982L197.341 27.1982L200.503 27.1982L200.503 37.7432Q200.503 40.0208 201.053 41.1208Q201.558 42.1105 202.356 42.4571Q203.302 42.8604 204.539 42.8604Z" fill="rgb(255,255,255)" fill-rule="nonzero" />
		</g>
		<g id="koleso">
			<ellipse id="Ellipse 1" rx="27.500000" ry="27.500002" cx="30.5" cy="30.5000019" fill="rgb(255,255,255)" fill-opacity="0" />
			<ellipse id="Ellipse 1" rx="27.500000" ry="27.500002" cx="30.5" cy="30.5000019" stroke="rgb(255,255,255)" stroke-width="6" />
			<ellipse id="Ellipse 2" rx="11.500000" ry="11.000000" cx="30.5" cy="30" fill="rgb(255,255,255)" />
			<rect id="Rectangle 2" width="51.071426" height="3.985508" x="4.571289" y="28.506836" fill="rgb(255,255,255)" />
			<rect id="Rectangle 3" width="51.811600" height="3.928572" x="0.000000" y="0.000000" fill="rgb(255,255,255)" transform="matrix(1.23116e-16,1,-1,1.2671e-16,32.0713,4.59375)" />
			<rect id="Rectangle 4" width="51.442844" height="3.957142" x="0.000000" y="0.000000" fill="rgb(255,255,255)" transform="matrix(0.702001,-0.712176,0.702001,0.712176,10.6616,47.4092)" />
			<rect id="Rectangle 5" width="51.442844" height="3.957142" x="0.000000" y="0.000000" fill="rgb(255,255,255)" transform="matrix(0.702001,0.712176,-0.702001,0.712176,13.4397,10.7725)" />
			<ellipse id="Ellipse 3" rx="9.500000" ry="9.000000" cx="30.5" cy="30" fill="rgb(2.72305,40.4567,7.12531)" />
			<path id="Ellipse 4" d="M22 30C22 25.3056 25.8056 21.5 30.5 21.5C35.1944 21.5 39 25.3056 39 30C39 34.6944 35.1944 38.5 30.5 38.5C28.1414 38.5 26.0075 37.5397 24.4676 35.9884C22.9425 34.452 22 32.3358 22 30Z" fill="rgb(255,255,255)" fill-rule="evenodd" />
			<circle id="Ellipse 5" cx="24.5" cy="28.5" r="1.5" fill="rgb(2.72305,40.4567,7.12531)" />
			<circle id="Ellipse 6" cx="27.5" cy="24.5" r="1.5" fill="rgb(2.72305,40.4567,7.12531)" />
			<circle id="Ellipse 7" cx="33.5" cy="24.5" r="1.5" fill="rgb(2.72305,40.4567,7.12531)" />
			<circle id="Ellipse 8" cx="36.5" cy="28.5" r="1.5" fill="rgb(2.72305,40.4567,7.12531)" />
			<circle id="Ellipse 10" cx="35.5" cy="33.5" r="1.5" fill="rgb(2.72305,40.4567,7.12531)" />
			<circle id="Ellipse 12" cx="30.5" cy="36.5" r="1.5" fill="rgb(2.72305,40.4567,7.12531)" />
			<circle id="Ellipse 13" cx="25.5" cy="33.5" r="1.5" fill="rgb(2.72305,40.4567,7.12531)" />
		</g>
	</g>
</svg>
