<svg viewBox="0 0 32 32" xmlns="http://www.w3.org/2000/svg" xmlns:xlink="http://www.w3.org/1999/xlink" width="32.000000" height="32.000000" fill="none">
	<rect id="mail" width="32.000000" height="32.000000" x="0.000000" y="0.000000" fill="rgb(255,255,255)" fill-opacity="0" />
	<g id="Group">
		<path id="Vector" d="M6.66683 6.66699C6.29864 6.66699 5.96531 6.81623 5.72402 7.05751C5.48274 7.29881 5.3335 7.63214 5.3335 8.00033L5.3335 24.0003C5.3335 24.7367 5.93046 25.3337 6.66683 25.3337L28.0002 25.3337C28.7366 25.3337 29.3335 24.7367 29.3335 24.0003L29.3335 8.00033C29.3335 7.63214 29.1843 7.29881 28.943 7.05751C28.7016 6.81623 28.3683 6.66699 28.0002 6.66699L6.66683 6.66699Z" fill-rule="nonzero" stroke="rgb(76,76,76)" stroke-linecap="round" stroke-linejoin="round" stroke-width="1.5" />
		<path id="Vector" d="M5.724 7.05762L15.4479 16.7814C16.4892 17.8229 18.1777 17.8229 19.2191 16.7814L28.9429 7.05762" fill-rule="nonzero" stroke="rgb(76,76,76)" stroke-linecap="round" stroke-linejoin="round" stroke-width="1.5" />
	</g>
</svg>
